<svg width="8" height="8" viewBox="0 0 8 8" fill="none" xmlns="http://www.w3.org/2000/svg">
<path d="M6.875 1.125C6.65625 0.90625 6.3125 0.90625 6.09375 1.125L4 3.21875L1.90625 1.125C1.6875 0.90625 1.34375 0.90625 1.125 1.125C0.90625 1.34375 0.90625 1.6875 1.125 1.90625L3.21875 4L1.125 6.09375C0.90625 6.3125 0.90625 6.65625 1.125 6.875C1.21875 6.96875 1.375 7.03125 1.5 7.03125C1.625 7.03125 1.78125 6.96875 1.875 6.875L3.96875 4.78125L6.0625 6.875C6.15625 6.96875 6.3125 7.03125 6.4375 7.03125C6.5625 7.03125 6.71875 6.96875 6.8125 6.875C7.03125 6.65625 7.03125 6.3125 6.8125 6.09375L4.78125 4L6.875 1.90625C7.0625 1.6875 7.0625 1.34375 6.875 1.125Z" fill="#DC2626"/>
</svg>
