<?xml version="1.0" encoding="utf-8"?>
<!-- Generator: Adobe Illustrator 22.0.1, SVG Export Plug-In . SVG Version: 6.00 Build 0)  -->
<svg version="1.1" id="Layer_1" xmlns="http://www.w3.org/2000/svg" xmlns:xlink="http://www.w3.org/1999/xlink" x="0px" y="0px"
	 viewBox="0 0 136 24" style="enable-background:new 0 0 136 24;" xml:space="preserve">
<style type="text/css">
	.st0{fill:#F8F9FA;}
	.st1{fill:#DDBEA9;}
</style>
<g>
	<path class="st0" d="M17,2.4L12.5,15H8.6L4.2,2.4h3.3l3.1,9.5l3.1-9.5C13.7,2.4,17,2.4,17,2.4z M21.3,4.8v2.6h4.1v2.4h-4.1v2.8H26
		V15h-7.7V2.4H26v2.5H21.3z M39.3,15h-3.1l-5.1-7.8V15H28V2.4h3.1l5.1,7.8V2.4h3.1L39.3,15L39.3,15z M41,8.7c0-1.2,0.3-2.4,0.8-3.3
		c0.5-1,1.3-1.8,2.3-2.3c1-0.6,2.1-0.8,3.3-0.8c1.5,0,2.8,0.4,3.9,1.2s1.8,1.9,2.1,3.2H50c-0.2-0.5-0.6-0.9-1.1-1.2
		c-0.5-0.3-1-0.4-1.6-0.4c-0.9,0-1.7,0.3-2.3,1s-0.9,1.5-0.9,2.6s0.3,2,0.9,2.6s1.4,1,2.3,1c0.6,0,1.1-0.1,1.6-0.4
		c0.5-0.3,0.9-0.7,1.1-1.2h3.4c-0.4,1.4-1.1,2.4-2.1,3.2c-1.1,0.8-2.4,1.2-3.9,1.2c-1.2,0-2.3-0.3-3.3-0.8c-0.9-0.5-1.7-1.3-2.3-2.3
		C41.3,11,41,9.9,41,8.7z M58.3,4.8v2.6h4.1v2.4h-4.1v2.8H63V15h-7.7V2.4H63v2.5L58.3,4.8L58.3,4.8z M73.4,15.1
		c-0.9,0-1.8-0.1-2.5-0.4c-0.7-0.3-1.3-0.7-1.8-1.3c-0.4-0.6-0.7-1.3-0.7-2.1h3.3c0,0.5,0.2,0.8,0.5,1.1c0.3,0.2,0.6,0.4,1.1,0.4
		c0.5,0,0.8-0.1,1.1-0.3c0.3-0.2,0.4-0.5,0.4-0.9c0-0.3-0.1-0.6-0.3-0.8c-0.2-0.2-0.5-0.4-0.8-0.5c-0.3-0.1-0.7-0.3-1.3-0.4
		c-0.8-0.3-1.5-0.5-2-0.8c-0.5-0.3-1-0.6-1.3-1.1c-0.4-0.5-0.6-1.1-0.6-1.9c0-1.2,0.4-2.1,1.3-2.8c0.9-0.7,2-1,3.3-1
		c1.4,0,2.5,0.3,3.4,1c0.9,0.7,1.3,1.6,1.4,2.8h-3.3c0-0.4-0.2-0.7-0.4-1c-0.3-0.2-0.6-0.4-1.1-0.4c-0.4,0-0.7,0.1-0.9,0.3
		c-0.2,0.2-0.3,0.5-0.3,0.8c0,0.4,0.2,0.7,0.6,1c0.4,0.2,1,0.5,1.8,0.7c0.8,0.3,1.5,0.5,2,0.8c0.5,0.3,1,0.6,1.3,1.1
		c0.4,0.5,0.6,1.1,0.6,1.9c0,0.7-0.2,1.4-0.6,2c-0.4,0.6-0.9,1.1-1.6,1.4C75.1,15,74.3,15.1,73.4,15.1z M85.5,12.4V15h-1.6
		c-1.1,0-2-0.3-2.6-0.8c-0.6-0.6-0.9-1.4-0.9-2.7v-4h-1.2V5h1.2V2.5h3.1V5h2v2.6h-2v4c0,0.3,0.1,0.5,0.2,0.6
		c0.1,0.1,0.4,0.2,0.7,0.2L85.5,12.4L85.5,12.4z M97.1,5v10H94v-1.4c-0.3,0.4-0.7,0.8-1.3,1.1c-0.5,0.3-1.2,0.4-1.8,0.4
		c-0.8,0-1.4-0.2-2-0.5c-0.6-0.4-1.1-0.9-1.4-1.5c-0.3-0.6-0.5-1.4-0.5-2.3V5h3.1v5.5c0,0.7,0.2,1.2,0.5,1.6s0.8,0.6,1.4,0.6
		c0.6,0,1.1-0.2,1.4-0.6s0.5-0.9,0.5-1.6V5C94,5,97.1,5,97.1,5z M98.7,10c0-1,0.2-1.9,0.6-2.7c0.4-0.8,0.9-1.4,1.6-1.8
		c0.7-0.4,1.5-0.6,2.3-0.6c0.7,0,1.3,0.1,1.8,0.4c0.6,0.3,1,0.6,1.3,1.1V1.7h3.1V15h-3.1v-1.4c-0.3,0.5-0.7,0.9-1.2,1.2
		c-0.5,0.3-1.1,0.4-1.9,0.4c-0.8,0-1.6-0.2-2.3-0.6c-0.7-0.4-1.2-1-1.6-1.8C98.9,11.9,98.7,11,98.7,10L98.7,10z M106.2,10
		c0-0.8-0.2-1.4-0.6-1.8c-0.4-0.4-1-0.7-1.5-0.7c-0.6,0-1.1,0.2-1.6,0.7c-0.4,0.4-0.6,1-0.6,1.8s0.2,1.4,0.6,1.8
		c0.4,0.4,1,0.7,1.6,0.7s1.1-0.2,1.5-0.7C106,11.4,106.2,10.7,106.2,10z M113.1,3.9c-0.5,0-1-0.2-1.3-0.5c-0.3-0.3-0.5-0.7-0.5-1.2
		c0-0.5,0.2-0.9,0.5-1.2c0.3-0.3,0.8-0.5,1.3-0.5c0.5,0,1,0.2,1.3,0.5c0.3,0.3,0.5,0.7,0.5,1.2c0,0.5-0.2,0.9-0.5,1.2
		C114,3.8,113.6,3.9,113.1,3.9z M114.6,5v10h-3.1V5C111.5,5,114.6,5,114.6,5z M121.4,15.1c-1,0-1.9-0.2-2.7-0.6
		c-0.8-0.4-1.4-1-1.9-1.8c-0.4-0.8-0.7-1.7-0.7-2.7c0-1,0.2-1.9,0.7-2.7c0.4-0.8,1.1-1.4,1.9-1.8c0.8-0.4,1.7-0.6,2.7-0.6
		s1.9,0.2,2.7,0.6c0.8,0.4,1.4,1,1.9,1.8c0.5,0.8,0.7,1.7,0.7,2.7s-0.2,1.9-0.7,2.7c-0.4,0.8-1.1,1.4-1.9,1.8
		C123.3,14.9,122.4,15.1,121.4,15.1z M121.4,12.5c0.6,0,1.1-0.2,1.5-0.6c0.4-0.4,0.6-1.1,0.6-1.9s-0.2-1.4-0.6-1.9
		c-0.4-0.4-0.9-0.7-1.5-0.6c-0.6,0-1.1,0.2-1.5,0.6c-0.4,0.4-0.6,1-0.6,1.9c0,0.8,0.2,1.4,0.6,1.9C120.3,12.3,120.9,12.5,121.4,12.5
		z"/>
	<path class="st1" d="M129.7,15.1c-0.5,0-1-0.2-1.3-0.5c-0.3-0.3-0.5-0.7-0.5-1.2c0-0.5,0.2-0.9,0.5-1.2c0.3-0.3,0.8-0.5,1.3-0.5
		c0.5,0,1,0.2,1.3,0.5c0.3,0.3,0.5,0.7,0.5,1.2c0,0.5-0.2,0.9-0.5,1.2C130.7,15,130.3,15.1,129.7,15.1z"/>
</g>
</svg>
