  <svg display="none" xmlns="http://www.w3.org/2000/svg" xmlns:xlink="http://www.w3.org/1999/xlink">
    <symbol id="search-icon" viewBox="0 0 18 18" >
      <path d="M11.8368 10.3765L9.49991 8.03965C9.39444 7.93417 9.25146 7.87558 9.10145 7.87558H8.71939C9.36631 7.04817 9.75071 6.00747 9.75071 4.87536C9.75071 2.18219 7.56852 0 4.87536 0C2.18219 0 0 2.18219 0 4.87536C0 7.56852 2.18219 9.75071 4.87536 9.75071C6.00747 9.75071 7.04817 9.36631 7.87558 8.71939V9.10145C7.87558 9.25146 7.93417 9.39444 8.03965 9.49991L10.3765 11.8368C10.5969 12.0571 10.9531 12.0571 11.1711 11.8368L11.8345 11.1735C12.0548 10.9531 12.0548 10.5969 11.8368 10.3765ZM4.87536 7.87558C3.2182 7.87558 1.87514 6.53485 1.87514 4.87536C1.87514 3.2182 3.21586 1.87514 4.87536 1.87514C6.53251 1.87514 7.87558 3.21586 7.87558 4.87536C7.87558 6.53251 6.53485 7.87558 4.87536 7.87558Z" fill="currentColor" />
    </symbol>
    <symbol id="share-icon" viewBox="0 0 10 10" >
      <path d="M4.375 6.8663C4.375 7.21148 4.65482 7.4913 5 7.4913C5.34518 7.4913 5.625 7.21148 5.625 6.8663V2.3927L7.65172 4.41942L8.53561 3.53553L5.00007 0L1.46454 3.53553L2.34842 4.41942L4.375 2.39284V6.8663Z" fill="#495057"/>
      <path d="M0 6.25H1.25V8.75H8.75V6.25H10V8.75C10 9.44035 9.44036 10 8.75 10H1.25C0.559644 10 0 9.44035 0 8.75V6.25Z" fill="#495057"/>
    </symbol>
    <symbol id="facebook-icon" viewBox="0 0 24 24" >
      <path d="M12,2C6.477,2,2,6.477,2,12c0,5.013,3.693,9.153,8.505,9.876V14.65H8.031v-2.629h2.474v-1.749 c0-2.896,1.411-4.167,3.818-4.167c1.153,0,1.762,0.085,2.051,0.124v2.294h-1.642c-1.022,0-1.379,0.969-1.379,2.061v1.437h2.995 l-0.406,2.629h-2.588v7.247C18.235,21.236,22,17.062,22,12C22,6.477,17.523,2,12,2z" fill="currentColor" />
    </symbol>
    <symbol id="twitter-icon" viewBox="0 0 24 24" >
      <path d="M22,3.999c-0.78,0.463-2.345,1.094-3.265,1.276c-0.027,0.007-0.049,0.016-0.075,0.023c-0.813-0.802-1.927-1.299-3.16-1.299 c-2.485,0-4.5,2.015-4.5,4.5c0,0.131-0.011,0.372,0,0.5c-3.353,0-5.905-1.756-7.735-4c-0.199,0.5-0.286,1.29-0.286,2.032 c0,1.401,1.095,2.777,2.8,3.63c-0.314,0.081-0.66,0.139-1.02,0.139c-0.581,0-1.196-0.153-1.759-0.617c0,0.017,0,0.033,0,0.051 c0,1.958,2.078,3.291,3.926,3.662c-0.375,0.221-1.131,0.243-1.5,0.243c-0.26,0-1.18-0.119-1.426-0.165 c0.514,1.605,2.368,2.507,4.135,2.539c-1.382,1.084-2.341,1.486-5.171,1.486H2C3.788,19.145,6.065,20,8.347,20 C15.777,20,20,14.337,20,8.999c0-0.086-0.002-0.266-0.005-0.447C19.995,8.534,20,8.517,20,8.499c0-0.027-0.008-0.053-0.008-0.08 c-0.003-0.136-0.006-0.263-0.009-0.329c0.79-0.57,1.475-1.281,2.017-2.091c-0.725,0.322-1.503,0.538-2.32,0.636 C20.514,6.135,21.699,4.943,22,3.999z" fill="currentColor" />
    </symbol>
    <symbol id="linkedin-icon" viewBox="0 0 24 24" >
      <path d="M19,3H5C3.895,3,3,3.895,3,5v14c0,1.105,0.895,2,2,2h14c1.105,0,2-0.895,2-2V5C21,3.895,20.105,3,19,3z M9,17H6.477v-7H9 V17z M7.694,8.717c-0.771,0-1.286-0.514-1.286-1.2s0.514-1.2,1.371-1.2c0.771,0,1.286,0.514,1.286,1.2S8.551,8.717,7.694,8.717z M18,17h-2.442v-3.826c0-1.058-0.651-1.302-0.895-1.302s-1.058,0.163-1.058,1.302c0,0.163,0,3.826,0,3.826h-2.523v-7h2.523v0.977 C13.93,10.407,14.581,10,15.802,10C17.023,10,18,10.977,18,13.174V17z" fill="currentColor" />
    </symbol>
    <symbol id="angle-down" viewBox="0 0 10 5" >
<path d="M3.6891 4.72616L0.128783 1.16583C-0.0429278 0.994114 -0.0429278 0.715726 0.128783 0.544034L0.544038 0.128779C0.715456 -0.0426389 0.993275 -0.0429688 1.1651 0.128046L4.00001 2.94968L6.8349 0.128046C7.00672 -0.0429688 7.28454 -0.0426389 7.45596 0.128779L7.87122 0.544034C8.04293 0.715745 8.04293 0.994132 7.87122 1.16583L4.31091 4.72616C4.1392 4.89786 3.86082 4.89786 3.6891 4.72616Z" fill="currentColor" />
    </symbol>
</svg>
